# xmcd CD database file
#
# Track frame offsets:
#	150
#	12285
#	23480
#	35795
#	47705
#	59485
#	68500
#	80020
#	91225
#	102810
#	114440
#	127470
#	140615
#	154800
#	166895
#	179955
#	193385
#	206325
#	216675
#	228095
#	241730
#	254035
#	267885
#	278755
#	291290
#
# Disc length: 4056 seconds
#
# Revision: 0
# Processed by: cddbd v1.5.2PL0 Copyright (c) Steve Scherf et al.
# Submitted via: CDex 1.70beta2
#
DISCID=7d0fd619
DTITLE=CG-V2 - Country Greats - Vol.2 - D1
DYEAR=1900
DGENRE=Country
TTITLE0=I walk the Line - Johnny Cash
TTITLE1=Singing the Blues - Marty Robbins
TTITLE2=Your Cheatin' Heart - Hank Williams
TTITLE3=Sixteen Tons - Tennessee Ernie Ford
TTITLE4=It Wasn't God Who Made Honkey-Tonk Angles - Kitty Wells
TTITLE5=Alone With You - Farron Young
TTITLE6=Dear John Letter - Jean Shephard and Ferlin Husky
TTITLE7=Crazy Arms - Ray Price
TTITLE8=Loose Talk - Carl Smith
TTITLE9=Slowly - Webb Price
TTITLE10=Anytime - Eddy Arnold
TTITLE11=I Don't Hurt Anymore - Hank Snow
TTITLE12=Always Late(With Your Kisses) - Lefty Frizzell
TTITLE13=Mexican Joe - Jim Reeves
TTITLE14=Hey, Good Lookin' - Hank Williams
TTITLE15=Smoke, Smoke, Smoke(That Cigarette) - Tex Williams
TTITLE16=Jambalaya(On the Bayou) - Hank Williams
TTITLE17=There You Go - Johnny Cash
TTITLE18=Hey Joe - Carl Smith
TTITLE19=Divorce Me, C O D - Merel Travis
TTITLE20=Four Walls - Jim revees
TTITLE21=I Want To Be With You Always - Lefty Frizzell
TTITLE22=There Stands Teh Glass - Webb Price
TTITLE23=Lovesick Blues - Hank Williams
TTITLE24=I'm Movin' On - Hank Snow
EXTD=
EXTT0=
EXTT1=
EXTT2=
EXTT3=
EXTT4=
EXTT5=
EXTT6=
EXTT7=
EXTT8=
EXTT9=
EXTT10=
EXTT11=
EXTT12=
EXTT13=
EXTT14=
EXTT15=
EXTT16=
EXTT17=
EXTT18=
EXTT19=
EXTT20=
EXTT21=
EXTT22=
EXTT23=
EXTT24=
PLAYORDER=
